<svg width="28" height="28" viewBox="0 0 28 28" fill="none" xmlns="http://www.w3.org/2000/svg">
<g clip-path="url(#clip0_3241_998)">
<path d="M21.4375 0H6.5625C2.93813 0 0 2.93813 0 6.5625V21.4375C0 25.0619 2.93813 28 6.5625 28H21.4375C25.0619 28 28 25.0619 28 21.4375V6.5625C28 2.93813 25.0619 0 21.4375 0Z" fill="#F4F2ED"/>
<mask id="mask0_3241_998" style="mask-type:luminance" maskUnits="userSpaceOnUse" x="6" y="3" width="16" height="22">
<path d="M6.67188 3.0625H21.2581V24.9375H6.67188V3.0625Z" fill="white"/>
</mask>
<g mask="url(#mask0_3241_998)">
<path d="M10.3197 24.9377C12.3322 24.9377 13.9655 23.3044 13.9655 21.2919V17.646H10.3197C8.30723 17.646 6.67383 19.2794 6.67383 21.2919C6.67383 23.3044 8.30723 24.9377 10.3197 24.9377Z" fill="#0ACF83"/>
<path d="M6.67383 13.9998C6.67383 11.9873 8.30723 10.354 10.3197 10.354H13.9655V17.6456H10.3197C8.30723 17.6456 6.67383 16.0123 6.67383 13.9998Z" fill="#A259FF"/>
<path d="M6.67383 6.7083C6.67383 4.6958 8.30723 3.0625 10.3197 3.0625H13.9655V10.3542H10.3197C8.30723 10.3542 6.67383 8.7208 6.67383 6.7083Z" fill="#F24E1E"/>
<path d="M13.9648 3.0625H17.6106C19.6231 3.0625 21.2565 4.6958 21.2565 6.7083C21.2565 8.7208 19.6231 10.3542 17.6106 10.3542H13.9648V3.0625Z" fill="#FF7262"/>
<path d="M21.2565 13.9998C21.2565 16.0123 19.6231 17.6456 17.6106 17.6456C15.5981 17.6456 13.9648 16.0123 13.9648 13.9998C13.9648 11.9873 15.5981 10.354 17.6106 10.354C19.6231 10.354 21.2565 11.9873 21.2565 13.9998Z" fill="#1ABCFE"/>
</g>
</g>
<defs>
<clipPath id="clip0_3241_998">
<rect width="28" height="28" fill="white"/>
</clipPath>
</defs>
</svg>
