<svg width="28" height="28" viewBox="0 0 28 28" fill="none" xmlns="http://www.w3.org/2000/svg">
<g clip-path="url(#clip0_3241_1025)">
<path d="M21.4375 0H6.5625C2.93813 0 0 2.93813 0 6.5625V21.4375C0 25.0619 2.93813 28 6.5625 28H21.4375C25.0619 28 28 25.0619 28 21.4375V6.5625C28 2.93813 25.0619 0 21.4375 0Z" fill="#F4F2ED"/>
<path d="M3.74609 6.68555L13.9262 3.0625L24.3742 6.62944L22.6857 20.0922L13.9262 24.9375L5.30884 20.1551L3.74609 6.68555Z" fill="#E23237"/>
<path d="M24.3738 6.62955L13.9258 3.0625V24.9375L22.6853 20.0922L24.3738 6.62955Z" fill="#B52E31"/>
<path d="M13.9414 5.61914L7.59766 19.7285L9.96497 19.6806L11.2432 16.4924H16.9171L18.3061 19.7053L20.5633 19.7531L13.9414 5.61914ZM13.957 10.1486L16.1035 14.631H12.0854L13.9633 10.1486H13.957Z" fill="white"/>
</g>
<defs>
<clipPath id="clip0_3241_1025">
<rect width="28" height="28" fill="white"/>
</clipPath>
</defs>
</svg>
