<svg width="28" height="28" viewBox="0 0 28 28" fill="none" xmlns="http://www.w3.org/2000/svg">
<g clip-path="url(#clip0_3241_1058)">
<path d="M21.4375 0H6.5625C2.93813 0 0 2.93813 0 6.5625V21.4375C0 25.0619 2.93813 28 6.5625 28H21.4375C25.0619 28 28 25.0619 28 21.4375V6.5625C28 2.93813 25.0619 0 21.4375 0Z" fill="#F4F2ED"/>
<path fill-rule="evenodd" clip-rule="evenodd" d="M9.07812 12.0312C9.73438 9.40625 11.375 8.09375 14 8.09375C17.9375 8.09375 18.4297 11.0469 20.3984 11.5391C21.7109 11.8673 22.8594 11.3751 23.8438 10.0625C23.1875 12.6875 21.5469 14 18.9219 14C14.9844 14 14.4922 11.0469 12.5234 10.5547C11.2109 10.2266 10.0625 10.7188 9.07812 12.0312ZM4.15625 17.9375C4.8125 15.3125 6.45312 14 9.07812 14C13.0156 14 13.5078 16.9531 15.4766 17.4453C16.7891 17.7736 17.9375 17.2814 18.9219 15.9688C18.2656 18.5938 16.625 19.9062 14 19.9062C10.0625 19.9062 9.57031 16.9531 7.60156 16.4609C6.28906 16.1327 5.14062 16.6249 4.15625 17.9375Z" fill="url(#paint0_linear_3241_1058)"/>
</g>
<defs>
<linearGradient id="paint0_linear_3241_1058" x1="9.46094" y1="8.09375" x2="17.8828" y2="20.2891" gradientUnits="userSpaceOnUse">
<stop stop-color="#32B1C1"/>
<stop offset="1" stop-color="#14C6B7"/>
</linearGradient>
<clipPath id="clip0_3241_1058">
<rect width="28" height="28" fill="white"/>
</clipPath>
</defs>
</svg>
