<svg width="28" height="28" viewBox="0 0 28 28" fill="none" xmlns="http://www.w3.org/2000/svg">
<g clip-path="url(#clip0_3241_1037)">
<path d="M21.4375 0H6.5625C2.93813 0 0 2.93813 0 6.5625V21.4375C0 25.0619 2.93813 28 6.5625 28H21.4375C25.0619 28 28 25.0619 28 21.4375V6.5625C28 2.93813 25.0619 0 21.4375 0Z" fill="#F4F2ED"/>
<path d="M14.0001 3.28125C7.9602 3.28125 3.0625 8.17797 3.0625 14.2189C3.0625 19.0514 6.19642 23.1512 10.5423 24.5975C11.0889 24.6987 11.2896 24.3602 11.2896 24.0714C11.2896 23.8105 11.2794 22.949 11.2747 22.035C8.23189 22.6966 7.58986 20.7445 7.58986 20.7445C7.0922 19.4802 6.37536 19.1441 6.37536 19.1441C5.383 18.4652 6.45017 18.4792 6.45017 18.4792C7.54852 18.5563 8.12689 19.6063 8.12689 19.6063C9.10241 21.2785 10.6856 20.795 11.3097 20.5156C11.4079 19.8086 11.6913 19.3261 12.0041 19.053C9.5748 18.7764 7.021 17.8385 7.021 13.6476C7.021 12.4534 7.44822 11.4777 8.14789 10.7117C8.03425 10.4362 7.65986 9.32378 8.25377 7.81725C8.25377 7.81725 9.1723 7.52336 11.2625 8.93834C12.1349 8.69608 13.0705 8.57456 14.0001 8.57041C14.9296 8.57456 15.866 8.69608 16.7401 8.93845C18.8277 7.52325 19.7449 7.81736 19.7449 7.81736C20.3402 9.32378 19.9658 10.4363 19.8521 10.7117C20.5534 11.4777 20.9778 12.4534 20.9778 13.6476C20.9778 17.8486 18.4191 18.7736 15.9835 19.0443C16.3758 19.3838 16.7254 20.0493 16.7254 21.0698C16.7254 22.5332 16.7127 23.7111 16.7127 24.0714C16.7127 24.3624 16.9096 24.7034 17.464 24.596C21.8075 23.1481 24.9375 19.0497 24.9375 14.2189C24.9375 8.17808 20.0405 3.28125 14.0001 3.28125ZM7.15903 18.862C7.13497 18.9164 7.04944 18.9327 6.97156 18.8954C6.89216 18.8597 6.84764 18.7856 6.87334 18.7311C6.89686 18.6751 6.98261 18.6596 7.06169 18.6971C7.1412 18.7328 7.18648 18.8076 7.15903 18.862ZM7.69705 19.3421C7.64488 19.3905 7.54283 19.368 7.4737 19.2916C7.40217 19.2153 7.38872 19.1134 7.44166 19.0643C7.49536 19.0159 7.59434 19.0386 7.66598 19.1148C7.73752 19.192 7.75152 19.2932 7.69705 19.3421ZM8.06608 19.9563C7.99903 20.0029 7.88944 19.9593 7.82173 19.862C7.75469 19.7647 7.75469 19.6481 7.82316 19.6013C7.89108 19.5546 7.99903 19.5966 8.06772 19.6932C8.13455 19.7921 8.13455 19.9088 8.06608 19.9563ZM8.69028 20.6677C8.63034 20.7338 8.5027 20.7161 8.40919 20.6258C8.31359 20.5377 8.28691 20.4125 8.34706 20.3464C8.40777 20.2801 8.53617 20.2988 8.63034 20.3883C8.72528 20.4762 8.75427 20.6023 8.69028 20.6677ZM9.49703 20.9078C9.47056 20.9935 9.34763 21.0325 9.2237 20.9961C9.10011 20.9585 9.01906 20.8583 9.04411 20.7716C9.06981 20.6854 9.1933 20.6449 9.31809 20.6838C9.44169 20.7211 9.52273 20.8207 9.49703 20.9078ZM10.4151 21.0097C10.4182 21.0999 10.3132 21.1747 10.1831 21.1763C10.0523 21.1793 9.94656 21.1062 9.94514 21.0175C9.94514 20.9264 10.0478 20.8523 10.1785 20.8502C10.3087 20.8476 10.4151 20.92 10.4151 21.0097ZM11.317 20.9752C11.3327 21.0631 11.2423 21.1536 11.1132 21.1776C10.9862 21.2008 10.8686 21.1465 10.8525 21.0592C10.8368 20.9689 10.9288 20.8786 11.0555 20.8552C11.1849 20.8328 11.3006 20.8857 11.317 20.9752Z" fill="#161614"/>
</g>
<defs>
<clipPath id="clip0_3241_1037">
<rect width="28" height="28" fill="white"/>
</clipPath>
</defs>
</svg>
