<svg width="28" height="28" viewBox="0 0 28 28" fill="none" xmlns="http://www.w3.org/2000/svg">
<g clip-path="url(#clip0_3241_1019)">
<path d="M21.4375 0H6.5625C2.93813 0 0 2.93813 0 6.5625V21.4375C0 25.0619 2.93813 28 6.5625 28H21.4375C25.0619 28 28 25.0619 28 21.4375V6.5625C28 2.93813 25.0619 0 21.4375 0Z" fill="#F4F2ED"/>
<path d="M15.8522 4.16303L21.9525 4.15625L11.7178 14.3857L9.05045 17.0381L6.01562 13.9996L15.8522 4.16303ZM15.7954 13.2966C15.8746 13.192 16.0203 13.2437 16.1308 13.2302L21.9473 13.2316L16.6462 18.5276L13.5956 15.4957L15.7954 13.2966Z" fill="#44D1FD"/>
<path d="M10.5547 18.5326L13.5955 15.4956L16.6461 18.5275L16.6588 18.5409L13.5963 21.575L10.5547 18.5326Z" fill="#1FBCFD"/>
<path d="M13.5957 21.5751L16.6582 18.541L21.9488 23.8368C19.956 23.8413 17.9638 23.8353 15.9718 23.8398C15.8582 23.8652 15.788 23.7614 15.7155 23.6972L13.5957 21.5751Z" fill="#08589C"/>
</g>
<defs>
<clipPath id="clip0_3241_1019">
<rect width="28" height="28" fill="white"/>
</clipPath>
</defs>
</svg>
