<svg width="28" height="28" viewBox="0 0 28 28" fill="none" xmlns="http://www.w3.org/2000/svg">
<g clip-path="url(#clip0_3241_1054)">
<path d="M21.4375 0H6.5625C2.93813 0 0 2.93813 0 6.5625V21.4375C0 25.0619 2.93813 28 6.5625 28H21.4375C25.0619 28 28 25.0619 28 21.4375V6.5625C28 2.93813 25.0619 0 21.4375 0Z" fill="#512BD4"/>
<path d="M2.63069 18.4781C2.38605 18.4781 2.17813 18.3982 2.00692 18.2382C1.83564 18.074 1.75 17.8791 1.75 17.6533C1.75 17.4236 1.83564 17.2266 2.00692 17.0624C2.17813 16.8983 2.38605 16.8163 2.63069 16.8162C2.87941 16.8162 3.08941 16.8983 3.26069 17.0624C3.43598 17.2265 3.52362 17.4235 3.52362 17.6533C3.52362 17.8791 3.43598 18.074 3.26069 18.2382C3.08941 18.3982 2.87941 18.4781 2.63069 18.4781ZM12.4105 18.3427H10.8204L6.63086 11.8548C6.52644 11.6937 6.43836 11.5225 6.36792 11.3438H6.33117C6.36377 11.5327 6.38006 11.9369 6.38006 12.5565V18.3427H4.97339V9.51562H6.6675L10.7163 15.8498C10.8876 16.1124 10.9977 16.293 11.0467 16.3915H11.071C11.0303 16.1576 11.0099 15.7615 11.0099 15.2033V9.51562H12.4105V18.3427ZM19.2607 18.3427H14.3373V9.51562H19.065V10.7591H15.793V13.2582H18.8082V14.4955H15.793V17.1055H19.2607V18.3427ZM26.2578 10.7591H23.738V18.3427H22.2823V10.7591H19.7687V9.51562H26.2578V10.7591Z" fill="white"/>
</g>
<defs>
<clipPath id="clip0_3241_1054">
<rect width="28" height="28" fill="white"/>
</clipPath>
</defs>
</svg>
