<svg width="28" height="28" viewBox="0 0 28 28" fill="none" xmlns="http://www.w3.org/2000/svg">
<g clip-path="url(#clip0_3241_1062)">
<path d="M21.4375 0H6.5625C2.93813 0 0 2.93813 0 6.5625V21.4375C0 25.0619 2.93813 28 6.5625 28H21.4375C25.0619 28 28 25.0619 28 21.4375V6.5625C28 2.93813 25.0619 0 21.4375 0Z" fill="url(#paint0_linear_3241_1062)"/>
<path d="M1.25542 14.1179L6.75742 16.3474V17.908L0.244141 14.8903V13.9746L1.25542 14.1179ZM6.75742 12.2866L1.26341 14.5478L0.24425 14.6594V13.7357L6.75731 10.7259L6.75742 12.2866ZM26.399 14.4364L20.7377 12.2308V10.71L27.5376 13.7197V14.6514L26.399 14.4364ZM20.7377 16.3792L26.415 14.1259L27.5376 13.9586V14.8823L20.7377 17.9001V16.3792Z" fill="white"/>
<path fill-rule="evenodd" clip-rule="evenodd" d="M19.2588 6.68269C19.2273 7.1821 19.0024 7.7036 19.065 8.18911C19.458 8.88408 20.3229 8.99488 21.0365 9.04257C21.5309 9.13094 21.5247 8.80358 21.4915 8.43586L21.4975 6.6723C20.7513 6.67503 20.0048 6.66497 19.2588 6.68269ZM13.3744 8.07941C12.1594 8.28569 10.9279 8.86625 9.91712 9.56516C9.10359 10.1983 10.6155 10.8119 11.164 10.9145C12.2676 10.928 13.2464 10.1836 13.9713 9.41094C14.208 9.0861 14.5037 8.58877 14.2063 8.21219C13.9792 8.01532 13.649 8.063 13.3744 8.07941ZM15.9597 9.84647C14.9607 10.0368 14.0103 10.4485 13.1693 11.0217C12.5527 11.2153 12.0446 11.8922 12.8086 12.2314C13.6108 12.8707 14.5406 12.7141 15.2794 12.2825C15.956 11.8803 16.6869 11.3841 16.9999 10.627C17.2956 9.79758 16.5328 9.76685 15.9597 9.84647ZM18.7934 13.0602C18.6074 13.8372 17.8249 14.1905 17.4086 14.8062C17.0683 15.2553 17.2259 15.7843 17.6134 16.1378C17.8021 16.5291 18.1328 16.7477 18.4875 16.4079C19.401 15.7868 19.6537 14.5772 19.6157 13.529C19.6832 13.0961 19.1865 13.4875 18.7934 13.0602ZM15.3172 14.5196C14.1041 14.7272 12.8908 15.3183 11.8796 16.0161C11.0947 16.6484 12.5731 17.2388 13.1261 17.3324C14.2501 17.3341 15.2528 16.6097 15.9635 15.787C16.2107 15.4603 16.5102 14.8258 16.0208 14.566C15.8019 14.4733 15.5479 14.5005 15.3172 14.5196Z" fill="#B956A6"/>
<path fill-rule="evenodd" clip-rule="evenodd" d="M9.91671 9.56504C8.98374 9.93834 8.0838 10.3916 7.19502 10.8663C7.02987 11.4804 7.16232 12.2409 7.11955 12.9143C7.11627 15.6833 7.1178 18.4523 7.11737 21.2212H9.1758C9.59143 20.8299 10.1121 20.5434 10.5636 20.1881C12.302 18.9413 14.0398 17.6897 15.7759 16.4465C15.9037 16.5039 15.8219 15.695 15.5416 16.2568C14.8776 16.8817 13.9963 17.3956 13.0634 17.3454C12.5341 17.1713 11.6807 16.8759 11.6754 16.2272C12.048 15.7885 10.9878 16.4569 10.6978 16.5526C9.75473 17.0054 8.83401 17.511 7.88901 17.9554C8.11607 17.7115 8.54088 17.4841 8.8421 17.2422C10.9938 15.6976 13.145 14.147 15.3019 12.6036C15.7168 12.3123 16.1175 11.9946 16.5452 11.7224C16.5842 11.8732 16.6575 11.0012 16.3394 11.5381C15.6911 12.1807 14.8165 12.6591 13.8941 12.6657C13.3754 12.5082 12.2705 12.1316 12.5164 11.4618C12.6364 11.2268 11.4021 11.9629 11.9475 11.5478C12.5279 11.1236 13.113 10.707 13.6979 10.2872C13.9933 10.265 13.9304 9.16768 13.529 9.87556C12.8547 10.468 11.9688 11.0101 11.0401 10.8816C10.5184 10.7314 9.89243 10.4406 9.70277 9.89502C9.63999 9.76399 10.0541 9.55979 9.91671 9.56504ZM13.7819 10.2424C13.8756 10.1884 13.7302 10.3904 13.7819 10.2424Z" fill="#FCCC44"/>
<path fill-rule="evenodd" clip-rule="evenodd" d="M19.6764 8.83218C19.3851 10.223 19.0667 11.6787 18.793 13.0603C19.5796 14.0517 19.6558 12.434 19.7934 11.9766C20.0158 11.0206 20.2792 10.2987 20.307 9.30883C20.3661 8.97098 19.9691 8.76644 19.6764 8.83218ZM20.5788 9.92276C20.6147 9.94955 20.5542 10.0653 20.5788 9.92276ZM19.6612 13.0415C19.699 13.123 19.699 12.9599 19.6612 13.0415Z" fill="#62777F"/>
<path fill-rule="evenodd" clip-rule="evenodd" d="M20.1928 8.98943C20.4382 10.3678 19.6253 12.0423 19.3594 13.3419C19.9631 12.8976 20.4296 10.8818 20.5488 10.0928C20.5796 10.0026 20.6174 9.77551 20.6256 9.7673C20.6636 9.57579 21.0172 9.25127 21.0365 9.04248C21.2424 8.89723 20.0248 8.87393 20.1928 8.98943ZM19.6922 13.0412C19.6542 13.1227 19.6542 12.9596 19.6922 13.0412Z" fill="#4E5E67"/>
<path fill-rule="evenodd" clip-rule="evenodd" d="M9.93744 9.58831C9.59706 9.92912 9.72481 9.84589 9.97812 9.5625L9.93744 9.58831ZM13.619 9.75708C13.2247 10.3496 11.8028 10.845 11.6238 10.8834C12.4791 10.7232 13.2763 10.1911 13.8373 9.56786C13.7482 9.60756 13.6952 9.70086 13.619 9.75708ZM9.70359 9.94947C9.91611 10.4605 10.6888 10.8 11.0643 10.8792C10.5517 10.714 9.94827 10.4211 9.70359 9.94947ZM13.7516 10.245C13.6443 10.3717 13.2621 10.5611 13.0606 10.747C12.6285 11.0658 12.1815 11.3619 11.7543 11.6886C12.0263 11.6769 12.8234 11.0815 12.4148 11.6857C12.7611 12.2817 13.515 12.6961 14.2024 12.6583C15.1102 12.5157 15.9474 12.0138 16.5492 11.3158C15.8186 12.0386 14.8529 12.719 13.7842 12.6252C13.2669 12.5058 11.8536 11.7757 12.799 11.2639C13.1324 10.9897 13.7072 10.8461 13.7722 10.3642C13.7586 10.3041 13.8707 10.2453 13.7516 10.245ZM11.1639 10.9147C11.5078 10.9597 11.5078 10.8699 11.1639 10.9147ZM16.5236 11.7378C15.1587 12.6887 13.8136 13.6768 12.4605 14.6447C10.9271 15.7422 9.40019 16.8437 7.86719 17.9403C8.44359 17.7459 9.02109 17.3664 9.59367 17.1042C10.3823 16.6871 11.2137 16.3575 11.9516 15.8508C13.4104 14.992 14.9533 14.1737 16.0753 12.8598C16.3202 12.5726 16.5658 12.1103 16.5767 11.7993C16.5414 11.8093 16.5682 11.675 16.5236 11.7378ZM11.8795 16.0162C11.634 16.2937 11.5342 16.492 11.789 16.1391C11.7846 16.18 11.9959 15.92 11.8795 16.0162ZM15.6153 16.149C14.9685 16.831 14.0118 17.323 13.1141 17.3561C14.1519 17.3637 15.0881 16.7477 15.7912 16.021C15.745 15.9652 15.6515 16.1509 15.6153 16.149ZM15.813 16.3633C13.6398 17.9453 11.3916 19.5863 9.21108 21.1626C9.55452 21.2703 10.3025 21.3209 10.6439 20.8811C11.3701 20.3799 12.1866 20.0114 12.9153 19.5035C13.9704 18.8188 15.1002 18.0705 15.6994 16.9197C15.728 16.7654 15.94 16.4878 15.813 16.3633ZM11.6772 16.4637C11.778 16.8894 13.0387 17.378 12.9019 17.2845C12.4371 17.1215 11.976 16.8675 11.6772 16.4637Z" fill="#DC9624"/>
</g>
<defs>
<linearGradient id="paint0_linear_3241_1062" x1="0" y1="28" x2="28" y2="0" gradientUnits="userSpaceOnUse">
<stop stop-color="#DB7093"/>
<stop offset="1" stop-color="#F3B661"/>
</linearGradient>
<clipPath id="clip0_3241_1062">
<rect width="28" height="28" fill="white"/>
</clipPath>
</defs>
</svg>
