<svg width="28" height="28" viewBox="0 0 28 28" fill="none" xmlns="http://www.w3.org/2000/svg">
<g clip-path="url(#clip0_3241_981)">
<path d="M21.4375 0H6.5625C2.93813 0 0 2.93813 0 6.5625V21.4375C0 25.0619 2.93813 28 6.5625 28H21.4375C25.0619 28 28 25.0619 28 21.4375V6.5625C28 2.93813 25.0619 0 21.4375 0Z" fill="#F4F2ED"/>
<path d="M13.2836 3.06827C13.2366 3.07254 13.0868 3.08752 12.9521 3.09813C9.84517 3.37824 6.93492 5.05474 5.09163 7.63139C4.06536 9.0641 3.40878 10.6892 3.16083 12.4106C3.07322 13.0116 3.0625 13.1891 3.0625 14.0037C3.0625 14.8184 3.07322 14.9959 3.16094 15.5967C3.75528 19.7044 6.67844 23.1558 10.6428 24.4345C11.3528 24.6633 12.1011 24.8193 12.9522 24.9134C13.2837 24.9497 14.7163 24.9497 15.0478 24.9134C16.5168 24.7509 17.7613 24.3874 18.9887 23.7608C19.1768 23.6647 19.2132 23.639 19.1875 23.6176C19.1705 23.6047 18.3685 22.5291 17.4064 21.2291L15.6573 18.8663L13.4654 15.6224C12.2594 13.8391 11.2673 12.3807 11.2586 12.3807C11.2501 12.3786 11.2416 13.8198 11.2373 15.5797C11.2308 18.661 11.2288 18.785 11.1903 18.8576C11.1347 18.9624 11.0919 19.0052 11.002 19.0523C10.9337 19.0865 10.8737 19.0929 10.5509 19.0929H10.181L10.0825 19.0309C10.0216 18.9927 9.97207 18.9388 9.93923 18.8748L9.89439 18.7786L9.89877 14.4913L9.90511 10.2018L9.97139 10.1184C10.0056 10.0735 10.0784 10.0158 10.1297 9.98799C10.2173 9.94522 10.2515 9.94096 10.6214 9.94096C11.0577 9.94096 11.1303 9.95802 11.2438 10.0821C11.2758 10.1163 12.4625 11.9039 13.8824 14.0572C15.3199 16.2367 16.7583 18.4156 18.1975 20.594L19.9295 23.2178L20.0173 23.16C20.7934 22.6554 21.6146 21.9369 22.2646 21.1884C23.6481 19.5996 24.5398 17.6624 24.8392 15.5967C24.9268 14.9959 24.9375 14.8184 24.9375 14.0037C24.9375 13.189 24.9268 13.0116 24.8392 12.4106C24.2447 8.30296 21.3216 4.85174 17.3572 3.57303C16.6579 3.3463 15.9138 3.19022 15.0799 3.09616C14.8746 3.07472 13.4611 3.05132 13.2837 3.06838M17.7613 9.68436C17.8639 9.73566 17.9473 9.83399 17.9773 9.93658C17.9944 9.99225 17.9986 11.1812 17.9944 13.8604L17.9879 17.7052L17.3101 16.6659L16.6301 15.6267V12.832C16.6301 11.0251 16.6387 10.0093 16.6515 9.9601C16.6857 9.84044 16.7605 9.74638 16.8632 9.69071C16.9508 9.64586 16.983 9.64149 17.3187 9.64149C17.6352 9.64149 17.6908 9.64586 17.7613 9.68436Z" fill="black"/>
</g>
<defs>
<clipPath id="clip0_3241_981">
<rect width="28" height="28" fill="white"/>
</clipPath>
</defs>
</svg>
