<svg width="28" height="28" viewBox="0 0 28 28" fill="none" xmlns="http://www.w3.org/2000/svg">
<g clip-path="url(#clip0_3241_974)">
<path d="M21.4375 0H6.5625C2.93813 0 0 2.93813 0 6.5625V21.4375C0 25.0619 2.93813 28 6.5625 28H21.4375C25.0619 28 28 25.0619 28 21.4375V6.5625C28 2.93813 25.0619 0 21.4375 0Z" fill="#F4F2ED"/>
<path d="M13.9995 16.0727C15.1265 16.0727 16.04 15.1591 16.04 14.0322C16.04 12.9053 15.1265 11.9917 13.9995 11.9917C12.8725 11.9917 11.959 12.9053 11.959 14.0322C11.959 15.1591 12.8726 16.0727 13.9995 16.0727Z" fill="#00D8FF"/>
<path d="M14.0002 9.8833C16.7398 9.8833 19.2849 10.2764 21.2039 10.9371C23.516 11.7331 24.9375 12.9396 24.9375 14.0321C24.9375 15.1706 23.431 16.4524 20.948 17.275C19.071 17.8969 16.6008 18.2215 14.0002 18.2215C11.3339 18.2215 8.80895 17.9168 6.91064 17.2681C4.50898 16.4472 3.0625 15.1489 3.0625 14.0321C3.0625 12.9484 4.41984 11.7512 6.69944 10.9565C8.62553 10.2849 11.2334 9.8833 13.9998 9.8833H14.0002Z" stroke="#00D8FF" stroke-width="0.974641"/>
<path d="M10.3892 11.9698C11.7579 9.59656 13.3698 7.58822 14.9008 6.25603C16.7453 4.65073 18.5008 4.02205 19.4471 4.56772C20.4333 5.13647 20.7911 7.08203 20.2633 9.64381C19.8647 11.5805 18.9116 13.8824 17.6123 16.1353C16.2802 18.4451 14.755 20.4801 13.2449 21.8001C11.334 23.4705 9.48651 24.075 8.51909 23.517C7.58033 22.9761 7.22136 21.2019 7.67176 18.8301C8.05228 16.826 9.00723 14.3663 10.3887 11.9698H10.3892Z" stroke="#00D8FF" stroke-width="0.974641"/>
<path d="M10.3927 16.1412C9.0202 13.7706 8.0857 11.3707 7.69567 9.37894C7.22612 6.97915 7.55807 5.14438 8.50362 4.59707C9.48898 4.02657 11.3531 4.68829 13.3089 6.42494C14.7877 7.73788 16.3061 9.71287 17.6091 11.9636C18.945 14.2712 19.9462 16.6091 20.3357 18.5765C20.8285 21.0663 20.4297 22.9687 19.4631 23.5281C18.5253 24.0711 16.8091 23.4963 14.9792 21.9215C13.433 20.5911 11.7789 18.5354 10.3927 16.1412Z" stroke="#00D8FF" stroke-width="0.974641"/>
</g>
<defs>
<clipPath id="clip0_3241_974">
<rect width="28" height="28" fill="white"/>
</clipPath>
</defs>
</svg>
