<svg width="28" height="28" viewBox="0 0 28 28" fill="none" xmlns="http://www.w3.org/2000/svg">
<g clip-path="url(#clip0_3241_970)">
<path d="M21.4375 0H6.5625C2.93813 0 0 2.93813 0 6.5625V21.4375C0 25.0619 2.93813 28 6.5625 28H21.4375C25.0619 28 28 25.0619 28 21.4375V6.5625C28 2.93813 25.0619 0 21.4375 0Z" fill="#007ACC"/>
<path d="M6.19245 14.0928L6.18359 15.2395H9.82797V25.595H12.4058V15.2395H16.0502V14.115C16.0502 13.4927 16.037 12.9728 16.0191 12.9594C16.0058 12.9417 13.788 12.9327 11.0991 12.9372L6.2058 12.9506L6.19245 14.0928ZM22.5939 12.918C23.3049 13.0958 23.8472 13.4114 24.345 13.9268C24.6028 14.2025 24.9849 14.7047 25.0161 14.8247C25.025 14.8603 23.8072 15.678 23.0695 16.1358C23.0428 16.1536 22.936 16.038 22.816 15.8603C22.4561 15.3358 22.0783 15.1091 21.5005 15.0692C20.6516 15.0113 20.105 15.4558 20.1094 16.198C20.1094 16.4158 20.1405 16.5446 20.2294 16.7225C20.416 17.1091 20.7627 17.3402 21.8517 17.8113C23.8561 18.6736 24.7138 19.2425 25.2472 20.0513C25.8428 20.9535 25.9761 22.3936 25.5716 23.4647C25.1272 24.6291 24.025 25.4202 22.4738 25.6825C21.9939 25.7669 20.856 25.7536 20.3405 25.6603C19.2161 25.4602 18.1494 24.9047 17.4917 24.1758C17.2339 23.8913 16.7316 23.1491 16.7628 23.0958C16.776 23.078 16.8916 23.0069 17.0205 22.9314C17.1449 22.8603 17.6161 22.5891 18.0605 22.3313L18.865 21.8646L19.0338 22.1136C19.2694 22.4735 19.7849 22.9669 20.0961 23.1313C20.9894 23.6025 22.2161 23.5358 22.8205 22.9936C23.0783 22.758 23.185 22.5135 23.185 22.1536C23.185 21.8291 23.1449 21.6869 22.976 21.4424C22.7583 21.1314 22.3139 20.8691 21.0516 20.3224C19.6072 19.7002 18.985 19.3136 18.4161 18.7002C18.0872 18.3447 17.776 17.7758 17.6472 17.3002C17.5405 16.9047 17.5139 15.9135 17.5983 15.5135C17.896 14.118 18.9494 13.1447 20.4694 12.8557C20.9628 12.7624 22.1094 12.798 22.5939 12.918Z" fill="white"/>
</g>
<defs>
<clipPath id="clip0_3241_970">
<rect width="28" height="28" fill="white"/>
</clipPath>
</defs>
</svg>
