<svg width="28" height="28" viewBox="0 0 28 28" fill="none" xmlns="http://www.w3.org/2000/svg">
<g clip-path="url(#clip0_3241_953)">
<path d="M21.4375 0H6.5625C2.93813 0 0 2.93813 0 6.5625V21.4375C0 25.0619 2.93813 28 6.5625 28H21.4375C25.0619 28 28 25.0619 28 21.4375V6.5625C28 2.93813 25.0619 0 21.4375 0Z" fill="#F0DB4F"/>
<path d="M7.36144 23.3987L9.50409 22.1019C9.91753 22.8349 10.2936 23.455 11.1956 23.455C12.0602 23.455 12.6053 23.1168 12.6053 21.8013V12.8546H15.2367V21.8384C15.2367 24.5637 13.6391 25.8043 11.3083 25.8043C9.20342 25.8043 7.98159 24.7141 7.36133 23.3985M16.6659 23.1167L18.8083 21.8763C19.3723 22.7973 20.1054 23.4739 21.4021 23.4739C22.4925 23.4739 23.1877 22.9288 23.1877 22.177C23.1877 21.2748 22.4735 20.9552 21.2705 20.4291L20.6129 20.1471C18.7145 19.339 17.4551 18.324 17.4551 16.1814C17.4551 14.2078 18.9588 12.7041 21.3083 12.7041C22.9811 12.7041 24.184 13.2869 25.0485 14.8092L22.9998 16.1249C22.5486 15.3167 22.0601 14.9973 21.3083 14.9973C20.5376 14.9973 20.0489 15.4859 20.0489 16.1249C20.0489 16.9143 20.5376 17.2339 21.6653 17.7227L22.3231 18.0045C24.5597 18.9632 25.819 19.9404 25.819 22.1393C25.819 24.5077 23.9583 25.8045 21.4586 25.8045C19.0152 25.8045 17.4364 24.6392 16.6659 23.1167Z" fill="#323330"/>
</g>
<defs>
<clipPath id="clip0_3241_953">
<rect width="28" height="28" fill="white"/>
</clipPath>
</defs>
</svg>
