<svg width="28" height="28" viewBox="0 0 28 28" fill="none" xmlns="http://www.w3.org/2000/svg">
<g clip-path="url(#clip0_3241_985)">
<path d="M21.4375 0H6.5625C2.93813 0 0 2.93813 0 6.5625V21.4375C0 25.0619 2.93813 28 6.5625 28H21.4375C25.0619 28 28 25.0619 28 21.4375V6.5625C28 2.93813 25.0619 0 21.4375 0Z" fill="#FF3E00"/>
<mask id="mask0_3241_985" style="mask-type:luminance" maskUnits="userSpaceOnUse" x="5" y="4" width="18" height="20">
<path d="M5.79688 4.15625H22.1642V23.8438H5.79688V4.15625Z" fill="white"/>
</mask>
<g mask="url(#mask0_3241_985)">
<path d="M21.1134 6.75887C19.2948 4.13933 15.6743 3.37196 13.0716 5.02363L8.48334 7.96013C7.23209 8.74435 6.36452 10.029 6.11427 11.4805C5.89727 12.6985 6.0808 13.9497 6.66476 15.0343C6.26445 15.6349 5.99735 16.3023 5.88054 17.003C5.61366 18.4879 5.9641 20.0229 6.83166 21.2408C8.66698 23.8603 12.2707 24.6277 14.8735 22.976L19.4616 20.0562C20.713 19.272 21.5806 17.9874 21.8308 16.5358C22.0477 15.3179 21.8642 14.0665 21.2802 12.9821C21.6806 12.3814 21.9476 11.7141 22.0644 11.0133C22.348 9.51172 21.9977 7.97676 21.1134 6.75887Z" fill="white"/>
<path d="M12.6206 21.4911C11.8995 21.6781 11.1384 21.6392 10.4401 21.3796C9.74186 21.12 9.14017 20.6523 8.71642 20.0396C8.18256 19.3055 7.9823 18.3879 8.13236 17.4869C8.16583 17.3367 8.19919 17.2033 8.23255 17.0531L8.316 16.7862L8.54952 16.953C9.0959 17.3514 9.70491 17.6559 10.3515 17.8539L10.5183 17.904L10.5016 18.0708C10.4849 18.3045 10.5517 18.5547 10.6852 18.755C10.9522 19.1387 11.4193 19.3222 11.8697 19.2054C11.9699 19.172 12.07 19.1387 12.1534 19.0886L16.7249 16.1688C16.9585 16.0187 17.1087 15.8018 17.1586 15.5349C17.2086 15.2679 17.142 14.9843 16.9918 14.7674C16.7249 14.3836 16.2577 14.2168 15.8072 14.3336C15.7071 14.3669 15.607 14.4003 15.5236 14.4504L13.7717 15.5682C13.4881 15.7517 13.1712 15.8852 12.8375 15.9686C12.1164 16.1557 11.3552 16.1168 10.657 15.8572C9.95875 15.5976 9.35706 15.1298 8.93331 14.5171C8.41608 13.783 8.19919 12.8653 8.36609 11.9644C8.51616 11.0969 9.05012 10.3126 9.80087 9.8455L14.389 6.92573C14.6727 6.7422 14.9897 6.60876 15.3234 6.50857C16.0445 6.32154 16.8057 6.36047 17.5039 6.62009C18.2022 6.87971 18.8038 7.3475 19.2276 7.9602C19.7614 8.69432 19.9616 9.61187 19.8115 10.5129C19.7781 10.6631 19.7447 10.7965 19.6947 10.9467L19.6113 11.2136L19.3776 11.0468C18.8313 10.6484 18.2223 10.3439 17.5758 10.1458L17.4089 10.0957L17.4256 9.92895C17.4424 9.69532 17.3755 9.44508 17.2421 9.24481C16.9751 8.86112 16.508 8.69422 16.0576 8.81103C15.9574 8.84439 15.8573 8.87775 15.7738 8.92784L11.2024 11.8476C10.9688 11.9978 10.8186 12.2147 10.7686 12.4817C10.7186 12.7486 10.7852 13.0322 10.9354 13.2491C11.2024 13.6328 11.6695 13.7996 12.1201 13.6829C12.2201 13.6496 12.3202 13.6161 12.4037 13.5661L14.1555 12.4483C14.4391 12.2648 14.7561 12.1312 15.0898 12.0311C15.8109 11.8441 16.572 11.883 17.2703 12.1426C17.9685 12.4022 18.5702 12.87 18.994 13.4827C19.5278 14.2168 19.7281 15.1344 19.5779 16.0354C19.4277 16.9029 18.8939 17.6871 18.143 18.1543L13.5548 21.074C13.2712 21.2576 12.9543 21.391 12.6206 21.4911Z" fill="#FF3E00"/>
</g>
</g>
<defs>
<clipPath id="clip0_3241_985">
<rect width="28" height="28" fill="white"/>
</clipPath>
</defs>
</svg>
