<svg width="28" height="28" viewBox="0 0 28 28" fill="none" xmlns="http://www.w3.org/2000/svg">
<g clip-path="url(#clip0_3241_1046)">
<path d="M21.4375 0H6.5625C2.93813 0 0 2.93813 0 6.5625V21.4375C0 25.0619 2.93813 28 6.5625 28H21.4375C25.0619 28 28 25.0619 28 21.4375V6.5625C28 2.93813 25.0619 0 21.4375 0Z" fill="#F03C2E"/>
<mask id="mask0_3241_1046" style="mask-type:luminance" maskUnits="userSpaceOnUse" x="3" y="3" width="22" height="22">
<path d="M3.0625 3.0625H24.9375V24.9375H3.0625V3.0625Z" fill="white"/>
</mask>
<g mask="url(#mask0_3241_1046)">
<path d="M24.5253 13.0259L14.9748 3.47534C14.7779 3.27821 14.5269 3.14395 14.2536 3.08957C13.9804 3.03519 13.6971 3.06313 13.4397 3.16985C13.2689 3.24075 13.1137 3.34455 12.9829 3.47534L11.0005 5.45776L13.5161 7.97338C14.1012 7.76831 14.7712 7.90842 15.2373 8.37468C15.4593 8.59699 15.6142 8.87725 15.6844 9.18343C15.7547 9.48962 15.7373 9.80939 15.6345 10.1062L18.0592 12.5309C18.6458 12.3286 19.3225 12.4591 19.7907 12.9287C20.0253 13.1632 20.185 13.4619 20.2497 13.7872C20.3143 14.1125 20.281 14.4496 20.1539 14.7559C19.9836 15.1666 19.6572 15.4929 19.2464 15.663C18.8356 15.8331 18.3741 15.8331 17.9633 15.663C17.7598 15.5787 17.575 15.4552 17.4193 15.2994C16.9272 14.8072 16.8055 14.0826 17.0544 13.4763L14.793 11.2149V17.1657C14.9572 17.2469 15.1072 17.354 15.2373 17.4829C15.5517 17.7973 15.7283 18.2236 15.7283 18.6682C15.7283 19.1128 15.5517 19.5392 15.2373 19.8536C14.9229 20.168 14.4966 20.3446 14.052 20.3446C13.6074 20.3446 13.181 20.168 12.8666 19.8536C12.632 19.6192 12.4722 19.3205 12.4074 18.9953C12.3427 18.6701 12.3759 18.3329 12.5028 18.0266C12.5871 17.8232 12.7108 17.6384 12.8666 17.4829C13.0286 17.3216 13.2084 17.1992 13.4156 17.1171V11.111C13.21 11.027 13.0233 10.9027 12.8666 10.7454C12.6312 10.5103 12.4712 10.2104 12.4069 9.88397C12.3427 9.55756 12.377 9.21939 12.5057 8.91259L10.0243 6.43273L3.47546 12.9747C3.27831 13.1717 3.14403 13.4227 3.08961 13.6961C3.0352 13.9694 3.06309 14.2528 3.16975 14.5103C3.24069 14.6812 3.34456 14.8365 3.47546 14.9674L13.0266 24.5171C13.1574 24.6479 13.3126 24.7517 13.4835 24.8226C13.8287 24.9653 14.2165 24.9653 14.5617 24.8226C14.7325 24.7517 14.8878 24.6479 15.0186 24.5171L24.5253 15.0254C24.6562 14.8946 24.7601 14.7393 24.8309 14.5684C24.9018 14.3974 24.9383 14.2142 24.9383 14.0291C24.9383 13.8441 24.9018 13.6608 24.831 13.4899C24.7601 13.3189 24.6562 13.1636 24.5253 13.0327" fill="white"/>
</g>
</g>
<defs>
<clipPath id="clip0_3241_1046">
<rect width="28" height="28" fill="white"/>
</clipPath>
</defs>
</svg>
