<svg width="28" height="28" viewBox="0 0 28 28" fill="none" xmlns="http://www.w3.org/2000/svg">
<g clip-path="url(#clip0_3241_941)">
<path d="M21.4375 0H6.5625C2.93813 0 0 2.93813 0 6.5625V21.4375C0 25.0619 2.93813 28 6.5625 28H21.4375C25.0619 28 28 25.0619 28 21.4375V6.5625C28 2.93813 25.0619 0 21.4375 0Z" fill="#E14E1D"/>
<path d="M5.25 4.15625L6.19172 14.7211H18.3006L17.8943 19.2525L13.9955 20.3067L10.1041 19.254L9.84386 16.3445H6.33719L6.83867 21.9533L13.9948 23.9409L21.1599 21.9533L22.1205 11.2279H9.387L9.0673 7.65023H22.4371L22.75 4.15625H5.25Z" fill="white"/>
<path d="M14 4.15625H5.25L6.19172 14.7211H14V11.2279H9.387L9.0673 7.65023H14V4.15625ZM14 20.3051L13.9955 20.3067L10.1041 19.254L9.84386 16.3445H6.33719L6.83867 21.9533L13.9948 23.9409L14.0001 23.9393L14 20.3051Z" fill="#EBEBEB"/>
</g>
<defs>
<clipPath id="clip0_3241_941">
<rect width="28" height="28" fill="white"/>
</clipPath>
</defs>
</svg>
