<svg width="28" height="28" viewBox="0 0 28 28" fill="none" xmlns="http://www.w3.org/2000/svg">
<g clip-path="url(#clip0_3241_1010)">
<path d="M21.4375 0H6.5625C2.93813 0 0 2.93813 0 6.5625V21.4375C0 25.0619 2.93813 28 6.5625 28H21.4375C25.0619 28 28 25.0619 28 21.4375V6.5625C28 2.93813 25.0619 0 21.4375 0Z" fill="#F4F2ED"/>
<path d="M9.56414 9.51624L8.29102 8.24268L8.29594 17.4413L8.31125 17.8708C8.31748 18.0738 8.35599 18.3015 8.41745 18.5384L18.4996 22.0944L21.022 20.9778L21.0242 20.974L9.56348 9.51624H9.56414Z" fill="#00C4B3"/>
<path d="M8.41941 18.5382H8.42028C8.41911 18.534 8.41768 18.5299 8.41602 18.5259C8.4182 18.5306 8.4182 18.5352 8.41908 18.5382H8.41941ZM21.0213 20.9776L18.4987 22.0942L8.4182 18.5382C8.61048 19.2777 9.03716 20.1089 9.49555 20.5623L12.7839 23.8345L20.1015 23.8437L21.0182 20.9776H21.0213Z" fill="#22D3C5"/>
<path d="M8.32609 8.24316L4.40609 14.1633C4.0807 14.5109 4.24312 15.2282 4.76702 15.7567L7.02977 18.038L8.4522 18.5394C8.39073 18.3031 8.35201 18.0779 8.3461 17.8719L8.33079 17.4425L8.32609 8.24382V8.24316Z" fill="#0075C9"/>
<path d="M18.5827 8.36152C18.3459 8.30148 18.1188 8.26363 17.9143 8.25784L17.4596 8.24121L8.29102 8.2434L21.0239 20.9744L22.1424 18.4519L18.5833 8.36207L18.5827 8.36152Z" fill="#0075C9"/>
<path d="M18.5723 8.35906C18.5761 8.36029 18.58 8.36131 18.584 8.36212V8.36091C18.58 8.36004 18.5763 8.36004 18.5723 8.3584V8.35906ZM20.6072 9.44121C20.1442 8.97527 19.3244 8.54915 18.584 8.36212L22.1431 18.4511L21.0234 20.9735L23.7557 20.1005L23.7618 12.6094L20.6069 9.44099L20.6072 9.44121Z" fill="#00A8E1"/>
<path d="M18.0839 6.94779L15.8076 4.68373C15.2765 4.16179 14.5593 3.99872 14.2147 4.32356L8.29492 8.24258L17.4635 8.24039L17.9181 8.25701C18.1227 8.26325 18.35 8.30076 18.5866 8.3607L18.0845 6.94725L18.0839 6.94779Z" fill="#00C4B3"/>
</g>
<defs>
<clipPath id="clip0_3241_1010">
<rect width="28" height="28" fill="white"/>
</clipPath>
</defs>
</svg>
