<svg width="28" height="28" viewBox="0 0 28 28" fill="none" xmlns="http://www.w3.org/2000/svg">
<g clip-path="url(#clip0_3241_947)">
<path d="M21.4375 0H6.5625C2.93813 0 0 2.93813 0 6.5625V21.4375C0 25.0619 2.93813 28 6.5625 28H21.4375C25.0619 28 28 25.0619 28 21.4375V6.5625C28 2.93813 25.0619 0 21.4375 0Z" fill="#0277BD"/>
<path d="M5.87923 11.2275L6.19227 14.7211H14.0105V11.2275H5.87923ZM14.0104 4.15625H5.25L5.56762 7.64991H14.0104V4.15625ZM14.0104 23.9357V20.3009L13.9951 20.3049L10.1042 19.2544L9.85545 16.4679H6.34834L6.8378 21.9535L13.9943 23.9402L14.0104 23.9357Z" fill="#EBEBEB"/>
<path d="M18.3001 14.7211L17.8945 19.2521L13.998 20.3038V23.9385L21.1603 21.9535L21.2127 21.3632L22.0337 12.1657L22.1189 11.2275L22.7497 4.15625H13.998V7.64991H18.9209L18.6031 11.2275H13.998V14.7211H18.3001Z" fill="white"/>
</g>
<defs>
<clipPath id="clip0_3241_947">
<rect width="28" height="28" fill="white"/>
</clipPath>
</defs>
</svg>
