<svg width="28" height="28" viewBox="0 0 28 28" fill="none" xmlns="http://www.w3.org/2000/svg">
<g clip-path="url(#clip0_3241_1031)">
<path d="M21.4375 0H6.5625C2.93813 0 0 2.93813 0 6.5625V21.4375C0 25.0619 2.93813 28 6.5625 28H21.4375C25.0619 28 28 25.0619 28 21.4375V6.5625C28 2.93813 25.0619 0 21.4375 0Z" fill="#0073AA"/>
<path d="M4.61719 13.9994C4.61719 17.7132 6.77549 20.9227 9.90514 22.4437L5.42952 10.181C4.89313 11.3825 4.61633 12.6836 4.61719 13.9994ZM20.3337 13.5259C20.3337 12.3664 19.9172 11.5634 19.56 10.9383C19.0843 10.1655 18.6385 9.51095 18.6385 8.73811C18.6385 7.87558 19.2927 7.07277 20.2141 7.07277C20.2557 7.07277 20.2951 7.07791 20.3357 7.0802C18.6664 5.55092 16.4425 4.61719 13.9997 4.61719C10.722 4.61719 7.83806 6.29894 6.16047 8.84628C6.38053 8.85284 6.58802 8.85755 6.76422 8.85755C7.74564 8.85755 9.26475 8.73833 9.26475 8.73833C9.7705 8.70858 9.83022 9.45145 9.32491 9.51128C9.32491 9.51128 8.81664 9.57111 8.25106 9.60075L11.6677 19.7637L13.721 13.6055L12.2592 9.60042C11.754 9.57078 11.2754 9.51095 11.2754 9.51095C10.7698 9.48131 10.829 8.70825 11.3347 8.73811C11.3347 8.73811 12.8841 8.85711 13.806 8.85711C14.7873 8.85711 16.3065 8.73811 16.3065 8.73811C16.8127 8.70825 16.8721 9.45113 16.3667 9.51095C16.3667 9.51095 15.8573 9.57078 15.2928 9.60042L18.6836 19.6863L19.6194 16.5591C20.0251 15.2612 20.3337 14.3291 20.3337 13.5259Z" fill="white"/>
<path d="M14.1647 14.8202L11.3496 23.0004C12.2103 23.2539 13.1029 23.3826 14.0001 23.3827C15.0613 23.383 16.1148 23.2031 17.1157 22.8508C17.0897 22.8097 17.0674 22.7665 17.049 22.7215L14.1647 14.8202ZM22.2329 9.49805C22.2755 9.81784 22.2966 10.1401 22.2961 10.4627C22.2961 11.4148 22.1182 12.4852 21.5826 13.8235L18.7167 22.1096C21.5061 20.483 23.3823 17.4611 23.3823 13.9997C23.3824 12.3684 22.9658 10.8344 22.2329 9.49805Z" fill="white"/>
<path d="M13.9998 3.0625C7.96906 3.0625 3.0625 7.96873 3.0625 13.9993C3.0625 20.0307 7.96906 24.9367 13.9998 24.9367C20.0302 24.9367 24.9375 20.0307 24.9375 13.9993C24.9373 7.96873 20.0302 3.0625 13.9998 3.0625ZM13.9998 24.4355C8.24556 24.4355 3.56398 19.7538 3.56398 13.9993C3.56398 8.24523 8.24545 3.56398 13.9998 3.56398C19.7537 3.56398 24.4349 8.24523 24.4349 13.9993C24.4349 19.7538 19.7537 24.4355 13.9998 24.4355Z" fill="white"/>
</g>
<defs>
<clipPath id="clip0_3241_1031">
<rect width="28" height="28" fill="white"/>
</clipPath>
</defs>
</svg>
